<svg xmlns="http://www.w3.org/2000/svg" viewBox="0 0 320.00 300.00" data-guides="{&quot;vertical&quot;:[],&quot;horizontal&quot;:[]}"><defs/><path fill="rgb(255, 237, 181)" stroke="none" fill-opacity="1" stroke-width="1" stroke-opacity="1" id="tSvgadc43e4561" title="Path 2" d="M238.3639 110.3329C246.9236 110.3329 255.4833 110.3329 264.0429 110.3329C270.7483 88.0509 277.4536 65.7689 284.1589 43.4869C286.8969 34.3919 280.7849 24.9999 272.1299 24.9999C258.1789 24.9999 244.2279 24.9999 230.2769 24.9999C221.6229 24.9999 215.5119 34.3919 218.2479 43.4869C224.9533 65.7689 231.6586 88.0509 238.3639 110.3329Z"/><path fill="#00ab91" stroke="none" fill-opacity="1" stroke-width="1" stroke-opacity="1" x="276.256" y="182.044" width="19.911" height="59.733" id="tSvga9c3271ea4" title="Rectangle 1" d="M178.5879 72C185.2249 72 191.8619 72 198.4989 72C198.4989 91.911 198.4989 111.822 198.4989 131.733C191.8619 131.733 185.2249 131.733 178.5879 131.733C178.5879 111.822 178.5879 91.911 178.5879 72Z" style="transform-origin: -9821.04px -9898.13px;"/><path fill="rgb(255, 198, 27)" stroke="none" fill-opacity="1" stroke-width="1" stroke-opacity="1" x="121.966" y="156.444" width="113.778" height="170.667" id="tSvg1912c44f8a6" title="Rectangle 2" d="M25.5879 46C63.5139 46 101.4399 46 139.3659 46C139.3659 102.889 139.3659 159.778 139.3659 216.667C101.4399 216.667 63.5139 216.667 25.5879 216.667C25.5879 159.778 25.5879 102.889 25.5879 46Z" style="transform-origin: -9927.11px -9868.67px;"/><path fill="rgb(234, 162, 47)" stroke="none" fill-opacity="1" stroke-width="1" stroke-opacity="1" x="121.966" y="259.448" width="113.778" height="67.663" id="tSvg150534610e6" title="Rectangle 3" d="M25.5879 149C63.5139 149 101.4399 149 139.3659 149C139.3659 171.5543 139.3659 194.1087 139.3659 216.663C101.4399 216.663 63.5139 216.663 25.5879 216.663C25.5879 194.1087 25.5879 171.5543 25.5879 149Z" style="transform-origin: -9927.11px -9817.17px;"/><path fill="rgb(224, 145, 18)" stroke="none" fill-opacity="1" stroke-width="1" stroke-opacity="1" id="tSvg669b6249b2" title="Path 3" d="M271.9488 217.1598C227.4951 217.1598 183.0414 217.1598 138.5878 217.1598C138.5878 177.4398 138.5878 137.7198 138.5878 97.9998C183.0421 97.9998 227.4964 97.9998 271.9508 97.9998C290.4308 97.9998 305.4118 112.9808 305.4118 131.4608C305.4118 148.8735 305.4118 166.2862 305.4118 183.6988C305.4098 202.1788 290.4298 217.1598 271.9488 217.1598Z"/><path fill="rgb(255, 84, 25)" stroke="none" fill-opacity="1" stroke-width="1" stroke-opacity="1" id="tSvgd04abb744d" title="Path 4" d="M138.5878 148.9998C138.5878 171.5541 138.5878 194.1084 138.5878 216.6628C183.0421 216.6628 227.4964 216.6628 271.9508 216.6628C290.4308 216.6628 305.4118 201.6818 305.4118 183.2018C305.4118 171.8011 305.4118 160.4004 305.4118 148.9998C249.8038 148.9998 194.1958 148.9998 138.5878 148.9998Z"/><path fill="#00ab91" stroke="none" fill-opacity="1" stroke-width="1" stroke-opacity="1" id="tSvg18837c49b2c" title="Path 5" d="M141.898 46.444C102.5354 46.444 63.1727 46.444 23.81 46.444C15.956 46.444 9.588 40.076 9.588 32.222C9.588 32.222 9.588 32.222 9.588 32.222C9.588 24.368 15.956 18 23.81 18C63.1727 18 102.5354 18 141.898 18C149.752 18 156.12 24.368 156.12 32.222C156.12 32.222 156.12 32.222 156.12 32.222C156.12 40.076 149.752 46.444 141.898 46.444Z"/><path fill="#00ab91" stroke="none" fill-opacity="1" stroke-width="1" stroke-opacity="1" id="tSvgd219013ed3" title="Path 6" d="M296.815 234.447C205.6044 234.447 114.3937 234.447 23.183 234.447C15.675 234.447 9.588 228.36 9.588 220.852C9.588 220.433 9.588 220.014 9.588 219.595C9.588 212.087 15.675 206 23.183 206C114.3944 206 205.6057 206 296.817 206C304.325 206 310.412 212.087 310.412 219.595C310.412 220.014 310.412 220.433 310.412 220.852C310.41 228.36 304.323 234.447 296.815 234.447Z"/><path fill="rgb(255, 237, 181)" stroke="none" fill-opacity="1" stroke-width="1" stroke-opacity="1" cx="178.855" cy="327.111" r="56.889" id="tSvg44b5430b05" title="Ellipse 2" d="M82.4769 160C113.8958 160 139.3659 185.4701 139.3659 216.889C139.3659 248.3079 113.8958 273.778 82.4769 273.778C51.058 273.778 25.5879 248.3079 25.5879 216.889C25.5879 185.4701 51.058 160 82.4769 160Z" style="transform-origin: -9927.11px -9783.11px;"/><path fill="rgb(234, 162, 47)" stroke="none" fill-opacity="1" stroke-width="1" stroke-opacity="1" cx="178.855" cy="327.111" r="28.444" id="tSvg1767372cec4" title="Ellipse 3" d="M82.0319 189C97.7411 189 110.4759 201.7348 110.4759 217.444C110.4759 233.1532 97.7411 245.888 82.0319 245.888C66.3227 245.888 53.5879 233.1532 53.5879 217.444C53.5879 201.7348 66.3227 189 82.0319 189Z" style="transform-origin: -9927.56px -9782.56px;"/><path fill="rgb(255, 237, 181)" stroke="none" fill-opacity="1" stroke-width="1" stroke-opacity="1" cx="321.077" cy="327.111" r="56.889" id="tSvg19bd2ff199" title="Ellipse 4" d="M219.4769 160C250.8958 160 276.3659 185.4701 276.3659 216.889C276.3659 248.3079 250.8958 273.778 219.4769 273.778C188.058 273.778 162.5879 248.3079 162.5879 216.889C162.5879 185.4701 188.058 160 219.4769 160Z" style="transform-origin: -9790.11px -9783.11px;"/><path fill="rgb(234, 162, 47)" stroke="none" fill-opacity="1" stroke-width="1" stroke-opacity="1" cx="321.077" cy="327.111" r="28.444" id="tSvg3a3d23da44" title="Ellipse 5" d="M220.0319 189C235.7411 189 248.4759 201.7348 248.4759 217.444C248.4759 233.1532 235.7411 245.888 220.0319 245.888C204.3227 245.888 191.5879 233.1532 191.5879 217.444C191.5879 201.7348 204.3227 189 220.0319 189Z" style="transform-origin: -9789.56px -9782.56px;"/></svg>