<?xml version="1.0" ?><svg xmlns="http://www.w3.org/2000/svg" xmlns:xlink="http://www.w3.org/1999/xlink" version="1.1" id="Layer_1" height="40" width="40" viewBox="60 60 890 890" xml:space="preserve"><style type="text/css">
	.st0{fill:#ffffff;}
	.st1{fill:#FF0000;}
</style><g><g><path class="st1" d="M441.08,260.56h-39.07v-62.99c0-25.39,20.67-45.9,45.9-45.9h104.18c25.39,0,45.9,20.67,45.9,45.9v61.37    h-39.07v-61.37c0-3.74-3.09-6.84-6.84-6.84H447.91c-3.74,0-6.84,3.09-6.84,6.84V260.56z"/></g><g><path class="st0" d="M367.99,848.34c-40.86,0-75.53-29.3-79.76-67.71l-55.99-445.19h535.04l-45.9,443.89    c-4.23,40.04-40.86,70.32-83.5,68.85H370.76C369.78,848.34,368.97,848.34,367.99,848.34L367.99,848.34z M276.51,374.5    l50.62,401.57c2.12,19.37,20.84,33.86,42.65,33.04h0.65h268.25h0.33c22.3,0.81,41.51-14.16,43.62-34.02l41.35-400.75H276.51    L276.51,374.5z"/></g><g><path class="st0" d="M774.28,285.79H225.72c-10.74,0-19.53-8.79-19.53-19.53c0-10.74,8.79-19.53,19.53-19.53h548.55    c10.74,0,19.53,8.79,19.53,19.53C793.81,277,785.02,285.79,774.28,285.79z"/></g><g><g><g><path class="st1" d="M408.19,710.79c-9.6,0-17.58-7.65-17.91-17.25l-7.32-207.21c-0.33-9.93,7.32-18.23,17.25-18.56      c9.93-0.33,18.23,7.32,18.56,17.25l7.32,207.21c0.33,9.93-7.32,18.23-17.25,18.56C408.68,710.79,408.36,710.79,408.19,710.79z"/></g><g><path class="st1" d="M591.81,711.12c-0.16,0-0.49,0-0.65,0c-9.93-0.33-17.58-8.63-17.25-18.56l7.32-207.21      c0.33-9.93,8.63-17.58,18.56-17.25c9.93,0.33,17.58,8.63,17.25,18.56l-7.32,207.21C609.39,703.47,601.41,711.12,591.81,711.12z"/></g></g><g><path class="st1" d="M500,710.79c-9.93,0-17.91-7.98-17.91-17.91V485.51c0-9.93,7.98-17.91,17.91-17.91s17.91,7.98,17.91,17.91     v207.21C517.91,702.82,509.93,710.79,500,710.79L500,710.79z"/></g></g></g></svg>